<svg width="20" height="21" viewBox="0 0 20 21" fill="none" xmlns="http://www.w3.org/2000/svg">
<g opacity="0.3">
<path d="M14.9976 4.56641H5.03924C4.55353 4.56718 4.0734 4.67002 3.62998 4.86825C3.18656 5.06648 2.78974 5.35567 2.46525 5.71709C2.14076 6.07851 1.89584 6.50408 1.74637 6.96622C1.59689 7.42836 1.5462 7.91675 1.59757 8.39974L2.33924 15.3497C2.43158 16.1984 2.83383 16.9832 3.4689 17.5537C4.10398 18.1242 4.92722 18.4403 5.78091 18.4414H14.3059C15.1694 18.443 16.0022 18.1214 16.6406 17.5401C17.279 16.9587 17.6768 16.1596 17.7559 15.2997L18.4059 8.35807C18.4496 7.88139 18.3943 7.40083 18.2435 6.94651C18.0928 6.49219 17.8498 6.07393 17.5298 5.71793C17.2098 5.36194 16.8197 5.0759 16.3839 4.87774C15.9482 4.67959 15.4762 4.57359 14.9976 4.56641ZM11.5226 11.7914C11.5226 11.9409 11.493 12.089 11.4355 12.227C11.378 12.3651 11.2938 12.4904 11.1877 12.5958C11.0816 12.7011 10.9556 12.7844 10.8172 12.8409C10.6787 12.8973 10.5304 12.9258 10.3809 12.9247H9.41424C9.26471 12.9258 9.11644 12.8973 8.97797 12.8409C8.8395 12.7844 8.71358 12.7011 8.60746 12.5958C8.50133 12.4904 8.41711 12.3651 8.35963 12.227C8.30216 12.089 8.27257 11.9409 8.27257 11.7914V9.80807H11.4809L11.5226 11.7914Z" fill="white"/>
</g>
<path d="M18.4059 8.3599C18.4496 7.88321 18.3943 7.40265 18.2435 6.94833C18.0928 6.49402 17.8498 6.07575 17.5298 5.71975C17.2098 5.36376 16.8197 5.07772 16.3839 4.87956C15.9482 4.68141 15.4762 4.57542 14.9976 4.56823H13.6559V3.7349C13.6559 3.13595 13.418 2.56153 12.9945 2.13801C12.5709 1.71449 11.9965 1.47656 11.3976 1.47656H8.57257C7.98077 1.47646 7.41258 1.70866 6.99024 2.12321C6.5679 2.53776 6.32516 3.10153 6.31424 3.69323V4.52656H5.03924C4.55353 4.52734 4.0734 4.63018 3.62998 4.82841C3.18656 5.02663 2.78974 5.31583 2.46525 5.67725C2.14076 6.03866 1.89584 6.46424 1.74637 6.92638C1.59689 7.38852 1.5462 7.87691 1.59757 8.3599L1.72257 9.5599C3.45949 10.858 5.50986 11.6719 7.66424 11.9182C7.68963 12.3664 7.88465 12.788 8.20969 13.0976C8.53472 13.4071 8.9654 13.5814 9.41424 13.5849H10.3392C10.7761 13.5829 11.1968 13.4191 11.52 13.1252C11.8432 12.8312 12.046 12.428 12.0892 11.9932C14.3737 11.7514 16.5404 10.8575 18.3309 9.41823L18.4059 8.3599ZM7.57257 3.69323C7.57257 3.4258 7.67881 3.16933 7.86791 2.98023C8.057 2.79113 8.31348 2.6849 8.5809 2.6849H11.4059C11.6733 2.6849 11.9298 2.79113 12.1189 2.98023C12.308 3.16933 12.4142 3.4258 12.4142 3.69323V4.52656H7.56424L7.57257 3.69323ZM10.8309 11.7932C10.8309 11.8607 10.8175 11.9275 10.7914 11.9897C10.7654 12.0519 10.7272 12.1083 10.6791 12.1557C10.631 12.203 10.574 12.2402 10.5113 12.2653C10.4487 12.2903 10.3817 12.3027 10.3142 12.3016H9.41424C9.34679 12.3027 9.27979 12.2903 9.21715 12.2653C9.15451 12.2402 9.09748 12.203 9.04939 12.1557C9.0013 12.1083 8.96311 12.0519 8.93705 11.9897C8.91098 11.9275 8.89756 11.8607 8.89757 11.7932V10.4349H10.8309V11.7932Z" fill="white"/>
</svg>
