<svg width="14" height="9" viewBox="0 0 14 9" fill="none" xmlns="http://www.w3.org/2000/svg">
<path d="M6.99628 8.4494C6.86467 8.45017 6.73421 8.42494 6.61237 8.37517C6.49054 8.32541 6.37972 8.25209 6.28628 8.1594L0.286279 2.1594C0.193041 2.06617 0.11908 1.95548 0.0686197 1.83365C0.0181594 1.71183 -0.0078125 1.58126 -0.0078125 1.4494C-0.0078125 1.1831 0.0979755 0.927707 0.286279 0.739404C0.474583 0.5511 0.729978 0.445313 0.996279 0.445312C1.26258 0.445313 1.51798 0.5511 1.70628 0.739404L6.99628 6.0294L12.2863 0.739404C12.3795 0.646165 12.4902 0.572204 12.612 0.521744C12.7339 0.471283 12.8644 0.445312 12.9963 0.445312C13.1281 0.445312 13.2587 0.471283 13.3805 0.521744C13.5023 0.572204 13.613 0.646165 13.7063 0.739404C13.7995 0.832642 13.8735 0.943333 13.9239 1.06516C13.9744 1.18698 14.0004 1.31754 14.0004 1.4494C14.0004 1.58126 13.9744 1.71183 13.9239 1.83365C13.8735 1.95548 13.7995 2.06617 13.7063 2.1594L7.70628 8.1594C7.61284 8.25209 7.50202 8.32541 7.38019 8.37517C7.25835 8.42494 7.12789 8.45017 6.99628 8.4494Z" fill="#FCFCFC"/>
</svg>
