<svg width="14" height="14" viewBox="0 0 14 14" fill="none" xmlns="http://www.w3.org/2000/svg">
<path opacity="0.3" d="M7.0026 13.9154C10.6845 13.9154 13.6693 10.9306 13.6693 7.2487C13.6693 3.5668 10.6845 0.582031 7.0026 0.582031C3.32071 0.582031 0.335938 3.5668 0.335938 7.2487C0.335938 10.9306 3.32071 13.9154 7.0026 13.9154Z" fill="#0FEA9A"/>
<path d="M5.98498 10.6769V7.74355H4.65165C4.59099 7.74274 4.53182 7.7247 4.48102 7.69155C4.43023 7.65839 4.3899 7.61148 4.36475 7.55628C4.33959 7.50108 4.33065 7.43986 4.33895 7.37978C4.34725 7.31969 4.37247 7.26319 4.41165 7.21689L7.51832 3.61689C7.56241 3.56909 7.61977 3.53554 7.68305 3.52053C7.74633 3.50553 7.81265 3.50975 7.87351 3.53267C7.93438 3.55558 7.98701 3.59614 8.02469 3.64915C8.06236 3.70216 8.08336 3.76521 8.08498 3.83022V6.81689H9.41832C9.4796 6.81806 9.53931 6.83645 9.59063 6.86996C9.64195 6.90347 9.68281 6.95074 9.70854 7.00637C9.73427 7.06199 9.74383 7.12374 9.73613 7.18455C9.72842 7.24535 9.70377 7.30276 9.66498 7.35022L6.59832 10.9036C6.56826 10.9849 6.50712 11.0509 6.42836 11.0872C6.34959 11.1235 6.25965 11.1269 6.17832 11.0969C6.09698 11.0668 6.03092 11.0057 5.99466 10.9269C5.95841 10.8482 5.95492 10.7582 5.98498 10.6769Z" fill="#0FEA9A"/>
</svg>
