<svg width="21" height="21" viewBox="0 0 21 21" fill="none" xmlns="http://www.w3.org/2000/svg">
<path opacity="0.3" d="M14.1014 1.89346L7.31816 1.93016C4.57518 1.945 2.36359 4.18065 2.37843 6.92362L2.41487 13.6569C2.42971 16.3998 4.66536 18.6114 7.40833 18.5966L14.1916 18.5599C16.9345 18.545 19.1461 16.3094 19.1313 13.5664L19.0949 6.83318C19.08 4.09021 16.8444 1.87862 14.1014 1.89346Z" fill="#636674"/>
<path d="M10.7526 13.3411C12.5015 13.3411 13.9193 11.9234 13.9193 10.1745C13.9193 8.42558 12.5015 7.00781 10.7526 7.00781C9.0037 7.00781 7.58594 8.42558 7.58594 10.1745C7.58594 11.9234 9.0037 13.3411 10.7526 13.3411Z" fill="#636674"/>
<path d="M16.1693 18.142C15.7749 17.0203 15.042 16.0486 14.0717 15.3612C13.1014 14.6739 11.9417 14.3047 10.7526 14.3047C9.56353 14.3047 8.40378 14.6739 7.43351 15.3612C6.46324 16.0486 5.73032 17.0203 5.33594 18.142C5.98952 18.4405 6.70082 18.5913 7.41927 18.5837H14.1943C14.8756 18.5708 15.5473 18.4206 16.1693 18.142Z" fill="#636674"/>
</svg>
