<svg width="20" height="21" viewBox="0 0 20 21" fill="none" xmlns="http://www.w3.org/2000/svg">
<path opacity="0.3" d="M13.2174 2.83594H6.50078C3.76697 2.83594 1.55078 5.05213 1.55078 7.78594V14.5443C1.55078 17.2781 3.76697 19.4943 6.50078 19.4943H13.2174C15.9513 19.4943 18.1674 17.2781 18.1674 14.5443V7.78594C18.1674 5.05213 15.9513 2.83594 13.2174 2.83594Z" fill="white"/>
<path d="M12.1339 3.4348L12.9673 2.34314C13.1268 2.12562 13.3281 1.94216 13.5595 1.80353C13.7909 1.6649 14.0477 1.5739 14.3147 1.53586C14.5817 1.49782 14.8537 1.51352 15.1146 1.58203C15.3755 1.65054 15.62 1.77047 15.8339 1.9348L17.6339 3.3348C18.0696 3.67719 18.3549 4.17563 18.4296 4.72465C18.5042 5.27367 18.3623 5.8302 18.0339 6.27647L17.2006 7.36814C16.6086 7.48292 15.9988 7.46786 15.4132 7.32398C14.8277 7.18011 14.2803 6.91085 13.8089 6.5348C13.329 6.1635 12.932 5.69588 12.6435 5.16199C12.355 4.62811 12.1815 4.03977 12.1339 3.4348V3.4348ZM12.9673 7.76814C12.0574 7.06637 11.3689 6.11746 10.9839 5.0348L7.91727 9.14314C7.65597 9.47037 7.50956 9.87447 7.50061 10.2931V13.0015C7.49381 13.2438 7.54426 13.4844 7.64788 13.7036C7.7515 13.9228 7.90536 14.1144 8.09696 14.263C8.28857 14.4116 8.51251 14.5129 8.75061 14.5587C8.9887 14.6044 9.23424 14.5934 9.46727 14.5265L12.0339 13.7431C12.4229 13.6241 12.7624 13.3812 13.0006 13.0515L16.0423 8.94314C14.9129 8.8669 13.8313 8.45806 12.9339 7.76814H12.9673Z" fill="white"/>
</svg>
