<svg width="17" height="18" viewBox="0 0 17 18" fill="none" xmlns="http://www.w3.org/2000/svg">
<path opacity="0.3" d="M7.66667 9.58463H4.33333C4.11232 9.58463 3.90036 9.49684 3.74408 9.34056C3.5878 9.18428 3.5 8.97232 3.5 8.7513C3.5 8.53029 3.5878 8.31833 3.74408 8.16205C3.90036 8.00577 4.11232 7.91797 4.33333 7.91797H7.66667V9.58463ZM12.6667 7.91797H9.33333V9.58463H12.6667C12.8877 9.58463 13.0996 9.49684 13.2559 9.34056C13.4122 9.18428 13.5 8.97232 13.5 8.7513C13.5 8.53029 13.4122 8.31833 13.2559 8.16205C13.0996 8.00577 12.8877 7.91797 12.6667 7.91797Z" fill="white"/>
<path opacity="0.3" d="M11.9891 0.417969H5.00573C2.33175 0.417969 0.164062 2.58566 0.164062 5.25964V12.243C0.164062 14.9169 2.33175 17.0846 5.00573 17.0846H11.9891C14.663 17.0846 16.8307 14.9169 16.8307 12.243V5.25964C16.8307 2.58566 14.663 0.417969 11.9891 0.417969Z" fill="white"/>
<path d="M12.6667 7.91667H9.33333V4.58333C9.33333 4.36232 9.24554 4.15036 9.08926 3.99408C8.93298 3.8378 8.72101 3.75 8.5 3.75C8.27899 3.75 8.06702 3.8378 7.91074 3.99408C7.75446 4.15036 7.66667 4.36232 7.66667 4.58333V7.91667H4.33333C4.11232 7.91667 3.90036 8.00446 3.74408 8.16074C3.5878 8.31702 3.5 8.52899 3.5 8.75C3.5 8.97101 3.5878 9.18298 3.74408 9.33926C3.90036 9.49554 4.11232 9.58333 4.33333 9.58333H7.66667V12.9167C7.66667 13.1377 7.75446 13.3496 7.91074 13.5059C8.06702 13.6622 8.27899 13.75 8.5 13.75C8.72101 13.75 8.93298 13.6622 9.08926 13.5059C9.24554 13.3496 9.33333 13.1377 9.33333 12.9167V9.58333H12.6667C12.8877 9.58333 13.0996 9.49554 13.2559 9.33926C13.4122 9.18298 13.5 8.97101 13.5 8.75C13.5 8.52899 13.4122 8.31702 13.2559 8.16074C13.0996 8.00446 12.8877 7.91667 12.6667 7.91667Z" fill="white"/>
</svg>
