<svg width="21" height="21" viewBox="0 0 21 21" fill="none" xmlns="http://www.w3.org/2000/svg">
<g opacity="0.3">
<path d="M13.7248 18.7598L7.43317 18.8348C6.88813 18.8426 6.36081 18.6414 5.95944 18.2725C5.55807 17.9037 5.31311 17.3953 5.27484 16.8515L4.6665 8.1515C4.6572 8.02422 4.67457 7.8964 4.71751 7.77621C4.76045 7.65603 4.82801 7.54614 4.91586 7.45358C5.00372 7.36101 5.10994 7.28781 5.22772 7.23867C5.3455 7.18952 5.47224 7.16551 5.59984 7.16817H15.3998C15.5267 7.1656 15.6527 7.18939 15.7698 7.23804C15.887 7.28668 15.9928 7.35912 16.0806 7.45077C16.1683 7.54242 16.236 7.65128 16.2795 7.77046C16.323 7.88964 16.3413 8.01656 16.3332 8.14317L15.8415 16.7432C15.8118 17.2856 15.5763 17.7963 15.1829 18.1711C14.7896 18.5458 14.2681 18.7564 13.7248 18.7598Z" fill="#F1416C"/>
</g>
<path d="M12.3612 11.8359H8.64453C8.47877 11.8359 8.3198 11.7701 8.20259 11.6529C8.08538 11.5357 8.01953 11.3767 8.01953 11.2109C8.01953 11.0452 8.08538 10.8862 8.20259 10.769C8.3198 10.6518 8.47877 10.5859 8.64453 10.5859H12.3612C12.527 10.5859 12.6859 10.6518 12.8031 10.769C12.9203 10.8862 12.9862 11.0452 12.9862 11.2109C12.9862 11.3767 12.9203 11.5357 12.8031 11.6529C12.6859 11.7701 12.527 11.8359 12.3612 11.8359Z" fill="#F1416C"/>
<path d="M11.7096 14.918H9.29297C9.12721 14.918 8.96824 14.8521 8.85103 14.7349C8.73382 14.6177 8.66797 14.4587 8.66797 14.293C8.66797 14.1272 8.73382 13.9682 8.85103 13.851C8.96824 13.7338 9.12721 13.668 9.29297 13.668H11.7096C11.8754 13.668 12.0344 13.7338 12.1516 13.851C12.2688 13.9682 12.3346 14.1272 12.3346 14.293C12.3346 14.4587 12.2688 14.6177 12.1516 14.7349C12.0344 14.8521 11.8754 14.918 11.7096 14.918V14.918Z" fill="#F1416C"/>
<path d="M17.3761 6.46774H17.2845C12.7862 5.84922 8.22442 5.84922 3.72614 6.46774C3.565 6.48896 3.40193 6.44657 3.27151 6.34957C3.1411 6.25256 3.05361 6.10857 3.02759 5.94813C3.00158 5.78769 3.03908 5.62343 3.13216 5.49019C3.22523 5.35694 3.36655 5.26519 3.52614 5.2344C8.15056 4.58332 12.8434 4.58332 17.4678 5.2344C17.6219 5.2597 17.7609 5.34176 17.8575 5.46441C17.9541 5.58707 18.0013 5.74145 17.9898 5.89716C17.9783 6.05287 17.909 6.19864 17.7954 6.30578C17.6818 6.41292 17.5323 6.47367 17.3761 6.47607V6.46774Z" fill="#F1416C"/>
<path d="M13.8346 5.36797H7.16797L7.54297 3.43464C7.6098 3.08349 7.79532 2.766 8.06842 2.53538C8.34151 2.30477 8.68559 2.17505 9.04297 2.16797H11.9846C12.3485 2.16935 12.7006 2.29735 12.9804 2.53C13.2601 2.76266 13.4502 3.08545 13.518 3.44297L13.8346 5.36797Z" fill="#F1416C"/>
</svg>
