<svg width="21" height="21" viewBox="0 0 21 21" fill="none" xmlns="http://www.w3.org/2000/svg">
<g opacity="0.3">
<path d="M10.2505 10.1846C12.5333 10.1846 14.3839 8.33408 14.3839 6.0513C14.3839 3.76853 12.5333 1.91797 10.2505 1.91797C7.96774 1.91797 6.11719 3.76853 6.11719 6.0513C6.11719 8.33408 7.96774 10.1846 10.2505 10.1846Z" fill="#FCFCFC"/>
</g>
<path d="M16.6653 18.5828C16.8015 18.5905 16.9378 18.5688 17.0649 18.5192C17.1919 18.4695 17.3068 18.393 17.4017 18.295C17.4966 18.1969 17.5693 18.0796 17.6147 17.951C17.6602 17.8223 17.6774 17.6854 17.6653 17.5495C17.1319 14.4161 14.0153 12.0078 10.2486 12.0078C6.48192 12.0078 3.36526 14.4161 2.83192 17.5495C2.81973 17.6854 2.83696 17.8223 2.88244 17.951C2.92791 18.0796 3.00057 18.1969 3.09545 18.295C3.19034 18.393 3.30523 18.4695 3.43232 18.5192C3.5594 18.5688 3.6957 18.5905 3.83192 18.5828H16.6653Z" fill="#FCFCFC"/>
</svg>
